# xmcd CD database file
#
# Track frame offsets:
#	150
#	28372
#	46800
#	65970
#	90825
#	122287
#	132176
#	154578
#	230016
#	248186
#	291176
#	303106
#
# Disc length: 4310 seconds
#
# Revision: 0
# Processed by: cddbd v1.4PL0 Copyright (c) Steve Scherf et al.
# Submitted via: CDex 1.50Beta6
#
DISCID=9c10d40c
DTITLE=Bluespumpn - Dirty Dozen
DYEAR=1900
DGENRE=Blues
TTITLE0=Sweet Release
TTITLE1=Work with me
TTITLE2=Checkin' up on my baby
TTITLE3=Take me home 
TTITLE4=Key Of Destiny
TTITLE5=Woodquarter Blues
TTITLE6=Just A 4-Letter Word
TTITLE7=Edlauer Boogie
TTITLE8=Doent't Matter
TTITLE9=It's a real good feeling
TTITLE10=Bluesman
TTITLE11=Rock Me Baby
EXTD=
EXTT0=
EXTT1=
EXTT2=
EXTT3=
EXTT4=
EXTT5=
EXTT6=
EXTT7=
EXTT8=
EXTT9=
EXTT10=
EXTT11=
PLAYORDER=
